<?xml version="1.0" encoding="UTF-8"?>
<svg version="1.1" xmlns="http://www.w3.org/2000/svg" width="717" height="129">
<path d="M0 0 C5.94 0 11.88 0 18 0 C23.57446809 31.4893617 23.57446809 31.4893617 25 45 C25.66 45 26.32 45 27 45 C27.07516846 44.44352783 27.15033691 43.88705566 27.2277832 43.3137207 C28.14382609 36.54137343 29.06973902 29.7704079 30 23 C30.13873535 21.98663574 30.2774707 20.97327148 30.42041016 19.92919922 C30.81801852 17.03557251 31.22072546 14.14270201 31.625 11.25 C31.74786377 10.35192627 31.87072754 9.45385254 31.99731445 8.52856445 C32.11421631 7.69929443 32.23111816 6.87002441 32.3515625 6.015625 C32.45291504 5.28633789 32.55426758 4.55705078 32.65869141 3.80566406 C33 2 33 2 34 0 C39.94 0 45.88 0 52 0 C52 11.88 52 23.76 52 36 C56.29 35.67 60.58 35.34 65 35 C64.4946875 33.13214844 63.989375 31.26429687 63.46875 29.33984375 C62.8120469 26.87251639 62.15582195 24.40506172 61.5 21.9375 C61.16613281 20.70837891 60.83226562 19.47925781 60.48828125 18.21289062 C60.17246094 17.01728516 59.85664063 15.82167969 59.53125 14.58984375 C59.09135742 12.94810181 59.09135742 12.94810181 58.64257812 11.27319336 C57.95565672 7.77412218 57.88976744 4.55696859 58 1 C64.08254674 0.22791202 67.0106062 2.62517568 71.625 6.125 C73.14129885 7.23523352 74.65825294 8.34457256 76.17578125 9.453125 C76.96549316 10.03642578 77.75520508 10.61972656 78.56884766 11.22070312 C82.60278985 14.17304001 86.70973458 17.01950421 90.8125 19.875 C92.5028589 21.05692744 94.19296106 22.23922214 95.8828125 23.421875 C97.58851176 24.61462611 99.29424099 25.80733434 101 27 C102.70575901 28.19266566 104.41148824 29.38537389 106.1171875 30.578125 C106.95749512 31.16553467 107.79780273 31.75294434 108.66357422 32.3581543 C110.33321566 33.52696791 112.0015333 34.69767507 113.66845703 35.87036133 C117.75392741 38.74302113 121.85481943 41.58513546 126 44.37109375 C126.78995361 44.90911621 127.57990723 45.44713867 128.39379883 46.00146484 C129.88300838 47.0149833 131.37990289 48.01733402 132.88549805 49.00634766 C135.79627159 51.00273278 137.66738653 52.33784335 139.26953125 55.52734375 C138.94850192 58.47243886 137.98422853 59.67319996 135.78808594 61.61083984 C131.84526592 64.67400832 127.74795094 67.49881572 123.625 70.3125 C121.56109943 71.73423204 119.49730036 73.15611143 117.43359375 74.578125 C116.37382324 75.30580078 115.31405273 76.03347656 114.22216797 76.78320312 C109.02955769 80.35563086 103.85924925 83.95997127 98.6875 87.5625 C96.85808714 88.83465588 95.02866061 90.10679209 93.19921875 91.37890625 C89.73590769 93.78905047 86.27646789 96.20460614 82.8203125 98.625 C82.00232178 99.19742432 81.18433105 99.76984863 80.34155273 100.35961914 C78.85665465 101.39986836 77.37294609 102.44181932 75.89086914 103.48608398 C73.99767805 104.81513646 72.09424724 106.12799846 70.1875 107.4375 C69.24487305 108.10555664 69.24487305 108.10555664 68.28320312 108.78710938 C64.74591066 111.19839461 62.32983603 112.60205339 58 112 C57.81997436 106.96209509 58.37275226 102.81454285 59.75 97.97265625 C60.01635254 97.02198524 60.01635254 97.02198524 60.28808594 96.05210876 C60.85024951 94.05305965 61.42486774 92.05785191 62 90.0625 C62.38625011 88.69750119 62.7716746 87.33226847 63.15625 85.96679688 C64.09464539 82.64177568 65.04423506 79.32007575 66 76 C64.58344207 75.9727585 63.16672955 75.95349533 61.75 75.9375 C60.56664062 75.92009766 60.56664062 75.92009766 59.359375 75.90234375 C57.06075329 75.99748538 55.16949782 76.23683594 53 77 C52.67 77.66 52.34 78.32 52 79 C49.90118788 79.18263558 47.79378942 79.26876284 45.6875 79.3125 C29.33871346 80.32086803 14.61001462 90.33019481 3.5390625 101.97265625 C-3.03836402 109.81497249 -8.22421842 118.47846385 -12 128 C-12.66 128 -13.32 128 -14 128 C-14.51048929 110.77571329 -14.16643241 91.23695274 -4.78691101 76.03370667 C-0.23433081 68.33333084 -0.2661059 60.82398687 -0.29296875 52.1484375 C-0.27982885 50.638133 -0.26451766 49.12784599 -0.24714661 47.61758423 C-0.20755061 43.67533972 -0.19712278 39.73355754 -0.19311523 35.7911377 C-0.18373538 31.75514932 -0.14629199 27.71942722 -0.11132812 23.68359375 C-0.04701124 15.78901143 -0.01615845 7.8948279 0 0 Z M11 32 C11 39.59 11 47.18 11 55 C12.32 54.34 13.64 53.68 15 53 C14.71766639 50.24874911 14.42452667 47.49938663 14.125 44.75 C14.04636719 43.97269531 13.96773438 43.19539063 13.88671875 42.39453125 C13.80292969 41.64042969 13.71914063 40.88632812 13.6328125 40.109375 C13.52283936 39.07248535 13.52283936 39.07248535 13.41064453 38.01464844 C13.00438613 35.5761624 13.00438613 35.5761624 11 32 Z M40 41 C40 52.88 40 64.76 40 77 C46.03652664 77.13220146 46.03652664 77.13220146 51 75 C51.08858646 72.26105915 51.11523479 69.5474673 51.09765625 66.80859375 C51.09553383 65.57883568 51.09553383 65.57883568 51.09336853 64.32423401 C51.08775289 61.69528618 51.07519779 59.06642227 51.0625 56.4375 C51.05748701 54.65950643 51.05292376 52.88151154 51.04882812 51.10351562 C51.03777839 46.73564455 51.02050331 42.36783652 51 38 C47.19941525 38 43.60555128 39.79814957 40 41 Z M28 46 C27.25573435 49.3251005 27.07018253 52.59933761 27 56 C26.34 56 25.68 56 25 56 C25 53.69 25 51.38 25 49 C20.80884715 49.58210456 19.62457917 50.28156562 16 53 C17.32 61.58 18.64 70.16 20 79 C23.63 79 27.26 79 31 79 C31.71717395 74.67750105 32.42908856 70.35417799 33.13623047 66.0300293 C33.3773136 64.56039298 33.6198098 63.09098771 33.86376953 61.62182617 C34.21502192 59.5049929 34.56111456 57.38736937 34.90625 55.26953125 C35.11572266 53.99698486 35.32519531 52.72443848 35.54101562 51.41333008 C35.92672009 48.54496089 36.09642822 45.88561434 36 43 C32.16779816 43 30.87049256 43.43166455 28 46 Z M7.15234375 60.58203125 C2.58078805 65.11871401 2.58078805 65.11871401 0.47265625 71.046875 C0.49707583 73.74000599 0.64093598 76.33195485 1 79 C5.00254456 79.09181134 5.00254456 79.09181134 9 79 C10.20495909 78.01592689 10.20495909 78.01592689 10.11352539 76.14233398 C10.10828857 75.35157471 10.10305176 74.56081543 10.09765625 73.74609375 C10.09443359 72.89208984 10.09121094 72.03808594 10.08789062 71.15820312 C10.07951172 70.26037109 10.07113281 69.36253906 10.0625 68.4375 C10.05798828 67.53580078 10.05347656 66.63410156 10.04882812 65.70507812 C10.03700225 63.46998686 10.0205222 61.23502563 10 59 C8.72119646 58.89160091 8.72119646 58.89160091 7.15234375 60.58203125 Z " fill="#F9CE0C" transform="translate(250,0)"/>
<path d="M0 0 C26 0 26 0 32 3 C37.40734066 8.69962934 37.20442507 13.90071187 37.25 21.375 C37.270625 22.21289062 37.29125 23.05078125 37.3125 23.9140625 C37.34499653 29.08101077 36.76649832 32.47930601 34 37 C33.4121875 38.175625 33.4121875 38.175625 32.8125 39.375 C32.544375 39.91125 32.27625 40.4475 32 41 C32.639375 41.763125 33.27875 42.52625 33.9375 43.3125 C37.80419034 48.35091469 37.32070271 53.61435326 37.62109375 59.75 C37.76709073 63.14313578 37.76709073 63.14313578 40 66 C41.32 66.33 42.64 66.66 44 67 C44 44.89 44 22.78 44 0 C55.22 0 66.44 0 78 0 C78 3.96 78 7.92 78 12 C71.07 12 64.14 12 57 12 C57 18.93 57 25.86 57 33 C63.27 33 69.54 33 76 33 C76 36.96 76 40.92 76 45 C69.73 45 63.46 45 57 45 C57 52.26 57 59.52 57 67 C66.24 67 75.48 67 85 67 C85 44.89 85 22.78 85 0 C90.94 0 96.88 0 103 0 C103.31022095 1.96791504 103.31022095 1.96791504 103.62670898 3.97558594 C104.39460068 8.84371032 105.16484103 13.71146066 105.93579102 18.57910156 C106.26911453 20.68577104 106.60180129 22.79254137 106.93383789 24.89941406 C107.41124727 27.92800213 107.89094646 30.95621995 108.37109375 33.984375 C108.51904892 34.92617615 108.66700409 35.86797729 108.81944275 36.83831787 C108.95951248 37.71892883 109.09958221 38.59953979 109.24389648 39.50683594 C109.36603012 40.27960876 109.48816376 41.05238159 109.61399841 41.84857178 C109.98732399 43.92934868 110.46179004 45.95628594 111 48 C111.08547592 47.41340103 111.17095184 46.82680206 111.25901794 46.22242737 C112.14628928 40.13900172 113.03933156 34.05644356 113.93579102 27.97436523 C114.26996815 25.70179809 114.60265323 23.42901103 114.93383789 21.15600586 C115.40903606 17.89638793 115.88952483 14.63758825 116.37109375 11.37890625 C116.51904892 10.35599991 116.66700409 9.33309357 116.81944275 8.27919006 C116.95951248 7.33829025 117.09958221 6.39739044 117.24389648 5.42797852 C117.36603012 4.59524918 117.48816376 3.76251984 117.61399841 2.90455627 C118 1 118 1 119 0 C124.61 0 130.22 0 136 0 C136 26.07 136 52.14 136 79 C132.04 79 128.08 79 124 79 C123.67 65.8 123.34 52.6 123 39 C120.03 58.8 120.03 58.8 117 79 C112.71 79 108.42 79 104 79 C103.1636379 74.12535646 102.32746208 69.25068101 101.49145508 64.37597656 C101.20732598 62.71939236 100.92314696 61.06281673 100.63891602 59.40625 C100.2291964 57.01825196 99.81965935 54.63022267 99.41015625 52.2421875 C99.22103416 51.14026566 99.22103416 51.14026566 99.02809143 50.01608276 C98.34172073 46.01232562 97.66782337 42.00694021 97 38 C96.67 51.53 96.34 65.06 96 79 C72.24 79 48.48 79 24 79 C23.67 70.09 23.34 61.18 23 52 C19.21312067 47.43813641 19.21312067 47.43813641 13 47 C13 57.56 13 68.12 13 79 C8.71 79 4.42 79 0 79 C0 52.93 0 26.86 0 0 Z M13 12 C13 19.59 13 27.18 13 35 C19.4815696 35.61529666 19.4815696 35.61529666 22.41015625 33.50390625 C24.60999151 30.03930085 24.5482825 26.90780203 24.4375 22.9375 C24.44458984 22.21755859 24.45167969 21.49761719 24.45898438 20.75585938 C24.42467271 17.91326973 24.28601074 15.55570908 22.97265625 13.00390625 C20.18059833 11.39525917 20.18059833 11.39525917 13 12 Z " fill="#F7CD13" transform="translate(41,0)"/>
<path d="M0 0 C4.29 0 8.58 0 13 0 C13.01981934 1.95856934 13.03963867 3.91713867 13.06005859 5.93505859 C13.12775656 12.39722425 13.20452598 18.85923195 13.28752708 25.32121849 C13.33753002 29.24015113 13.38385943 33.15905629 13.421875 37.078125 C13.4586777 40.85836233 13.50502343 44.63837191 13.55806351 48.41841507 C13.57663427 49.86250448 13.59173228 51.30664276 13.60334396 52.7508049 C13.62015992 54.76935063 13.65033105 56.78777188 13.68115234 58.80615234 C13.69447601 59.95642914 13.70779968 61.10670593 13.7215271 62.2918396 C13.72737638 65.14808928 13.72737638 65.14808928 16 67 C18.5 67.33333333 18.5 67.33333333 21 67 C23.74866966 64.25133034 23.27425011 62.65640683 23.31884766 58.80615234 C23.33871735 57.50495453 23.35858704 56.20375671 23.37905884 54.86312866 C23.3909362 53.4374 23.402599 52.01166955 23.4140625 50.5859375 C23.43276674 49.13146862 23.45233959 47.67701067 23.4727478 46.2225647 C23.52415394 42.39215531 23.56373399 38.56171072 23.60089111 34.73114014 C23.64087782 30.82327503 23.6919944 26.91555748 23.7421875 23.0078125 C23.83904719 15.33863503 23.92239109 7.66940087 24 0 C28.29 0 32.58 0 37 0 C37.04531605 8.07601645 37.08195347 16.15193284 37.10362434 24.2280426 C37.11402908 27.9787369 37.12812725 31.72933914 37.15087891 35.47998047 C37.17272609 39.1045013 37.18459348 42.72893399 37.18975449 46.35351562 C37.19342905 47.73129665 37.20060417 49.10907325 37.21146011 50.48681641 C37.35453563 69.40986023 37.35453563 69.40986023 31 77 C25.48812832 81.23990129 18.62610807 80.60852013 12 80 C6.69254876 78.29403353 4.20032646 75.38901915 1 71 C-0.13502438 67.59492687 -0.12016228 65.00779288 -0.11352539 61.41723633 C-0.11367142 60.75355545 -0.11381744 60.08987457 -0.1139679 59.40608215 C-0.11327182 57.21469848 -0.1054937 55.02340005 -0.09765625 52.83203125 C-0.09579099 51.31174262 -0.09436759 49.79145339 -0.09336853 48.27116394 C-0.08955188 44.27135557 -0.07972885 40.27158356 -0.06866455 36.27178955 C-0.05843213 32.18966158 -0.05386698 28.10752773 -0.04882812 24.02539062 C-0.03810583 16.01690855 -0.02051591 8.00846299 0 0 Z " fill="#F7CD14" transform="translate(206,0)"/>
<path d="M0 0 C25 0 25 0 32 4 C37.09768756 9.62748526 36.60132467 17.36505432 36.5 24.5 C36.51546875 25.58925781 36.5309375 26.67851562 36.546875 27.80078125 C36.51545182 34.29752292 35.96141186 39.66739486 32 45 C25.62082731 50.18307781 21.44093439 50 13 50 C13 59.57 13 69.14 13 79 C8.71 79 4.42 79 0 79 C0 52.93 0 26.86 0 0 Z M13 12 C13 20.58 13 29.16 13 38 C20.51761809 37.89167565 20.51761809 37.89167565 23 35 C23.31019696 32.80397205 23.31019696 32.80397205 23.265625 30.28125 C23.26820312 29.34925781 23.27078125 28.41726562 23.2734375 27.45703125 C23.26570313 26.48121094 23.25796875 25.50539063 23.25 24.5 C23.25773437 23.52417969 23.26546875 22.54835938 23.2734375 21.54296875 C23.26957031 20.14498047 23.26957031 20.14498047 23.265625 18.71875 C23.26336914 17.86216797 23.26111328 17.00558594 23.25878906 16.12304688 C23.19501572 13.78411453 23.19501572 13.78411453 21 12 C18.36 12 15.72 12 13 12 Z " fill="#F8CD0F" transform="translate(0,0)"/>
<path d="M0 0 C100.98 0 201.96 0 306 0 C306 16.83 306 33.66 306 51 C205.02 51 104.04 51 0 51 C0 44.07 0 37.14 0 30 C0.66 30.33 1.32 30.66 2 31 C2 36.94 2 42.88 2 49 C101.66 49 201.32 49 304 49 C304 33.49 304 17.98 304 2 C204.34 2 104.68 2 2 2 C2 5.63 2 9.26 2 13 C1.34 12.67 0.68 12.34 0 12 C0 8.04 0 4.08 0 0 Z " fill="#E2CB67" transform="translate(411,50)"/>
<path d="M0 0 C4.29 0 8.58 0 13 0 C13 26.07 13 52.14 13 79 C8.71 79 4.42 79 0 79 C0 52.93 0 26.86 0 0 Z " fill="#FACD0A" transform="translate(185,0)"/>
<path d="M0 0 C2.97 0 5.94 0 9 0 C10.78105501 6.61534718 11.92349718 13.23341084 13 20 C14.32 13.4 15.64 6.8 17 0 C20.3 0 23.6 0 27 0 C27 13.53 27 27.06 27 41 C24.69 41 22.38 41 20 41 C19.67 36.38 19.34 31.76 19 27 C18.34 31.62 17.68 36.24 17 41 C14.69 41 12.38 41 10 41 C8.67580106 36.58600353 7.76722276 32.60333655 7 28 C6.67 32.29 6.34 36.58 6 41 C4.02 41 2.04 41 0 41 C0 27.47 0 13.94 0 0 Z " fill="#FEFEFE" transform="translate(412,1)"/>
<path d="M0 0 C4.42117715 1.35091524 6.443343 3.1650145 9 7 C10.38575949 11.39655445 10.22214696 15.80710126 10.25 20.375 C10.270625 21.21289062 10.29125 22.05078125 10.3125 22.9140625 C10.34499653 28.08101077 9.76649832 31.47930601 7 36 C6.608125 36.78375 6.21625 37.5675 5.8125 38.375 C5.544375 38.91125 5.27625 39.4475 5 40 C5.639375 40.763125 6.27875 41.52625 6.9375 42.3125 C10.2968064 46.68977803 10.27928006 50.87132239 10.5625 56.1875 C10.60568359 56.93708984 10.64886719 57.68667969 10.69335938 58.45898438 C10.79922685 60.30578375 10.9000976 62.15286834 11 64 C10.34 63.67 9.68 63.34 9 63 C9 59.37 9 55.74 9 52 C8.34 52 7.68 52 7 52 C6.67 52.66 6.34 53.32 6 54 C5.67 53.34 5.34 52.68 5 52 C3.515 51.505 3.515 51.505 2 51 C1.67 50.01 1.34 49.02 1 48 C-5.61647775 54.61647775 -0.65367773 66.64929861 -1 76 C21.44 76 43.88 76 67 76 C67 61.15 67 46.3 67 31 C67.66 31 68.32 31 69 31 C69 46.51 69 62.02 69 78 C45.24 78 21.48 78 -3 78 C-3.33 69.09 -3.66 60.18 -4 51 C-8.03685532 46.96314468 -8.7323908 46.47887356 -14 46 C-14.5161894 43.419053 -15.02388403 40.84987184 -15.4375 38.25 C-15.623125 37.5075 -15.80875 36.765 -16 36 C-16.66 35.67 -17.32 35.34 -18 35 C-18 34.34 -18 33.68 -18 33 C-17.34 33 -16.68 33 -16 33 C-15.97494385 32.3387915 -15.9498877 31.67758301 -15.92407227 30.99633789 C-15.80846898 28.01817695 -15.68558246 25.0403608 -15.5625 22.0625 C-15.50352539 20.50112305 -15.50352539 20.50112305 -15.44335938 18.90820312 C-15.38051758 17.42416992 -15.38051758 17.42416992 -15.31640625 15.91015625 C-15.27974854 14.99371338 -15.24309082 14.07727051 -15.20532227 13.13305664 C-15 11 -15 11 -14 10 C-11.98405418 9.76572222 -9.961526 9.58663876 -7.9375 9.4375 C-6.83277344 9.35371094 -5.72804688 9.26992187 -4.58984375 9.18359375 C-3.73519531 9.12300781 -2.88054687 9.06242188 -2 9 C-1.67 9.66 -1.34 10.32 -1 11 C-1.66 11 -2.32 11 -3 11 C-2.01 12.485 -2.01 12.485 -1 14 C-0.69933846 16.75417318 -0.49074701 19.42645147 -0.375 22.1875 C-0.33632812 22.93708984 -0.29765625 23.68667969 -0.2578125 24.45898438 C-0.16371784 26.30559199 -0.08077681 28.1527619 0 30 C0.66 28.02 1.32 26.04 2 24 C2.99 24.66 3.98 25.32 5 26 C5.99 26.33 6.98 26.66 8 27 C8.02693575 24.87506859 8.04636628 22.75004088 8.0625 20.625 C8.07410156 19.44164063 8.08570312 18.25828125 8.09765625 17.0390625 C8.21466593 14.08078479 8.21466593 14.08078479 7 12 C6.01 11.34 5.02 10.68 4 10 C2 4.94736842 2 4.94736842 2 2 C1.34 2 0.68 2 0 2 C0 1.34 0 0.68 0 0 Z M-14 11 C-14 18.59 -14 26.18 -14 34 C-7.5184304 34.61529666 -7.5184304 34.61529666 -4.58984375 32.50390625 C-2.39000849 29.03930085 -2.4517175 25.90780203 -2.5625 21.9375 C-2.55541016 21.21755859 -2.54832031 20.49761719 -2.54101562 19.75585938 C-2.57532729 16.91326973 -2.71398926 14.55570908 -4.02734375 12.00390625 C-6.81940167 10.39525917 -6.81940167 10.39525917 -14 11 Z " fill="#F1CD27" transform="translate(68,1)"/>
<path d="M0 0 C2.97 0 5.94 0 9 0 C11.08135307 5.29798964 12.71291613 10.45563871 14 16 C14.33 10.72 14.66 5.44 15 0 C16.98 0 18.96 0 21 0 C21 13.53 21 27.06 21 41 C18.69 41 16.38 41 14 41 C12.02 34.07 10.04 27.14 8 20 C7.67 26.93 7.34 33.86 7 41 C4.69 41 2.38 41 0 41 C0 27.47 0 13.94 0 0 Z " fill="#FEFEFE" transform="translate(498,1)"/>
<path d="M0 0 C100.98 0 201.96 0 306 0 C306 16.5 306 33 306 50 C305.67 50 305.34 50 305 50 C305 34.16 305 18.32 305 2 C205.01 2 105.02 2 2 2 C2 5.63 2 9.26 2 13 C1.34 12.67 0.68 12.34 0 12 C0 8.04 0 4.08 0 0 Z " fill="#ECCC3A" transform="translate(411,50)"/>
<path d="M0 0 C5.28 0 10.56 0 16 0 C16 11.55 16 23.1 16 35 C14.515 35.495 14.515 35.495 13 36 C12.54625 36.515625 12.0925 37.03125 11.625 37.5625 C10 39 10 39 7.3125 39.1875 C6.1678125 39.0946875 6.1678125 39.0946875 5 39 C5.33 37.35 5.66 35.7 6 34 C5.34 34 4.68 34 4 34 C4 35.98 4 37.96 4 40 C3.67 40 3.34 40 3 40 C3 38.02 3 36.04 3 34 C0.69 34 -1.62 34 -4 34 C-4.02688151 32.35425434 -4.04634123 30.70838587 -4.0625 29.0625 C-4.07410156 28.14597656 -4.08570313 27.22945312 -4.09765625 26.28515625 C-4 24 -4 24 -3 23 C-2.79068103 20.83703727 -2.63202931 18.6690529 -2.5 16.5 C-2.11111111 10.11111111 -2.11111111 10.11111111 -1 9 C-0.76807135 7.48530552 -0.58784762 5.96245438 -0.4375 4.4375 C-0.293125 2.973125 -0.14875 1.50875 0 0 Z " fill="#F8CC0A" transform="translate(285,0)"/>
<path d="M0 0 C15 0 15 0 19 3 C21.06632619 9.19897858 20.4493716 15.05152611 18 21 C18.4640625 21.80050781 18.4640625 21.80050781 18.9375 22.6171875 C20.48839252 26.09529204 20.21072989 29.51745233 20.125 33.25 C20.11597656 33.99507812 20.10695313 34.74015625 20.09765625 35.5078125 C20.07418358 37.33868059 20.03831525 39.16938238 20 41 C17.69 41 15.38 41 13 41 C12.67 35.72 12.34 30.44 12 25 C10.35 24.67 8.7 24.34 7 24 C7 29.61 7 35.22 7 41 C4.69 41 2.38 41 0 41 C0 27.47 0 13.94 0 0 Z M7 6 C7 9.96 7 13.92 7 18 C8.65 17.67 10.3 17.34 12 17 C12.93786082 11.94990405 12.93786082 11.94990405 12 7 C10.35 6.67 8.7 6.34 7 6 Z " fill="#FEFEFE" transform="translate(596,1)"/>
<path d="M0 0 C2.64365079 1.87613927 2.95241281 2.85723843 4 6 C4.12781786 8.67394964 4.04391871 11.32095857 4 14 C1.69 14 -0.62 14 -3 14 C-3.33 11.69 -3.66 9.38 -4 7 C-4.99 7 -5.98 7 -7 7 C-7.33 15.91 -7.66 24.82 -8 34 C-6.02 33.505 -6.02 33.505 -4 33 C-3.505 28.545 -3.505 28.545 -3 24 C-3.99 24 -4.98 24 -6 24 C-6 22.02 -6 20.04 -6 18 C-2.7 18 0.6 18 4 18 C4.08132187 20.56314499 4.14064175 23.12368418 4.1875 25.6875 C4.21263672 26.40873047 4.23777344 27.12996094 4.26367188 27.87304688 C4.32667231 32.47207891 3.88572296 35.37434807 1 39 C-2.72579089 41.48386059 -4.58711402 41.3804212 -9 41 C-12.1507269 39.66969309 -13.58395467 38.833817 -15.11791992 35.75952148 C-16.74871114 30.65771325 -16.32711599 25.37395209 -16.3125 20.0625 C-16.32861328 18.89525391 -16.34472656 17.72800781 -16.36132812 16.52539062 C-16.36747707 5.73398951 -16.36747707 5.73398951 -13 1 C-8.69946772 -1.82606407 -4.81459002 -1.00951081 0 0 Z " fill="#FEFEFE" transform="translate(538,1)"/>
<path d="M0 0 C4.07630272 5.17376884 2.84983121 11.54819561 2.875 17.875 C2.895625 19.15955078 2.91625 20.44410156 2.9375 21.76757812 C2.94265625 23.00572266 2.9478125 24.24386719 2.953125 25.51953125 C2.96714355 27.2207312 2.96714355 27.2207312 2.98144531 28.95629883 C2.58435626 32.41668511 1.66597676 34.27105344 -0.375 37.0625 C-3.79428194 39.62696145 -7.2251922 39.35891484 -11.375 39.0625 C-13.94031061 38.23050737 -14.98517998 37.65723442 -16.45947266 35.40795898 C-18.32447428 30.63007348 -17.7467988 25.2843225 -17.74560547 20.21801758 C-17.74997953 18.1347481 -17.78632556 16.05359824 -17.82421875 13.97070312 C-17.82808594 12.65134766 -17.83195312 11.33199219 -17.8359375 9.97265625 C-17.84826416 8.16486694 -17.84826416 8.16486694 -17.86083984 6.32055664 C-17.28475141 2.45729023 -16.08329815 0.82059937 -13.375 -1.9375 C-8.95942856 -4.06915518 -3.68612516 -3.00710211 0 0 Z M-9.375 4.0625 C-10.7058911 6.72428221 -10.48768993 8.74989396 -10.47265625 11.7265625 C-10.46943359 12.84804687 -10.46621094 13.96953125 -10.46289062 15.125 C-10.45451172 16.300625 -10.44613281 17.47625 -10.4375 18.6875 C-10.43298828 19.87085938 -10.42847656 21.05421875 -10.42382812 22.2734375 C-10.41201467 25.20317507 -10.39554258 28.13281272 -10.375 31.0625 C-8.725 31.3925 -7.075 31.7225 -5.375 32.0625 C-3.3806584 28.0738168 -4.19014964 23.01015918 -4.1875 18.625 C-4.17525391 17.56216797 -4.16300781 16.49933594 -4.15039062 15.40429688 C-4.14845703 14.38529297 -4.14652344 13.36628906 -4.14453125 12.31640625 C-4.13836792 10.91370483 -4.13836792 10.91370483 -4.13208008 9.48266602 C-4.21014656 6.80188224 -4.21014656 6.80188224 -6.375 4.0625 C-7.365 4.0625 -8.355 4.0625 -9.375 4.0625 Z " fill="#FEFEFE" transform="translate(459.375,2.9375)"/>
<path d="M0 0 C2.64 0 5.28 0 8 0 C8.08564209 0.62044189 8.17128418 1.24088379 8.25952148 1.88012695 C8.6492433 4.69133434 9.0433213 7.50191423 9.4375 10.3125 C9.57220703 11.28896484 9.70691406 12.26542969 9.84570312 13.27148438 C9.97783203 14.20927734 10.10996094 15.14707031 10.24609375 16.11328125 C10.42676392 17.40939331 10.42676392 17.40939331 10.61108398 18.73168945 C10.96777075 21.15558126 10.96777075 21.15558126 12 24 C13.32 16.08 14.64 8.16 16 0 C18.31 0 20.62 0 23 0 C22.30714408 4.87480446 21.61334851 9.74947393 20.91870117 14.62402344 C20.68276885 16.28056263 20.44708842 17.93713771 20.21166992 19.59375 C19.87225306 21.98186692 19.53191539 24.36985111 19.19140625 26.7578125 C19.08719864 27.49242706 18.98299103 28.22704163 18.87562561 28.98391724 C18.3021156 32.99892036 17.68459163 37.00242479 17 41 C13.37 41 9.74 41 6 41 C5.14359491 35.48271648 4.28914449 29.96513519 3.43652344 24.44726562 C3.1460487 22.5692522 2.85503507 20.69132204 2.56347656 18.81347656 C2.14507421 16.11805458 1.72859548 13.42234143 1.3125 10.7265625 C1.18125732 9.88380768 1.05001465 9.04105286 0.91479492 8.17276001 C0 2.22774341 0 2.22774341 0 0 Z " fill="#FDFEFD" transform="translate(463,1)"/>
<path d="M0 0 C2.64 0 5.28 0 8 0 C8.08564209 0.62044189 8.17128418 1.24088379 8.25952148 1.88012695 C8.6492433 4.69133434 9.0433213 7.50191423 9.4375 10.3125 C9.57220703 11.28896484 9.70691406 12.26542969 9.84570312 13.27148438 C9.97783203 14.20927734 10.10996094 15.14707031 10.24609375 16.11328125 C10.42676392 17.40939331 10.42676392 17.40939331 10.61108398 18.73168945 C10.96777075 21.15558126 10.96777075 21.15558126 12 24 C13.32 16.08 14.64 8.16 16 0 C18.31 0 20.62 0 23 0 C22.30714408 4.87480446 21.61334851 9.74947393 20.91870117 14.62402344 C20.68276885 16.28056263 20.44708842 17.93713771 20.21166992 19.59375 C19.87225306 21.98186692 19.53191539 24.36985111 19.19140625 26.7578125 C19.08719864 27.49242706 18.98299103 28.22704163 18.87562561 28.98391724 C18.3021156 32.99892036 17.68459163 37.00242479 17 41 C13.37 41 9.74 41 6 41 C5.14359491 35.48271648 4.28914449 29.96513519 3.43652344 24.44726562 C3.1460487 22.5692522 2.85503507 20.69132204 2.56347656 18.81347656 C2.14507421 16.11805458 1.72859548 13.42234143 1.3125 10.7265625 C1.18125732 9.88380768 1.05001465 9.04105286 0.91479492 8.17276001 C0 2.22774341 0 2.22774341 0 0 Z " fill="#FEFEFE" transform="translate(617,1)"/>
<path d="M0 0 C2.86942113 2.26533247 3.83907612 3.51722837 5 7 C5.03954234 9.33299825 5.04401732 11.66708189 5 14 C2.69 14 0.38 14 -2 14 C-2.66 11.69 -3.32 9.38 -4 7 C-4.99 7.33 -5.98 7.66 -7 8 C-7 16.58 -7 25.16 -7 34 C-5.02 33.505 -5.02 33.505 -3 33 C-2.67 30.36 -2.34 27.72 -2 25 C0.31 25 2.62 25 5 25 C5.28809717 30.56987857 5.20219683 34.19670476 2 39 C-1.34725336 41.62998478 -4.8824152 41.43342998 -9 41 C-12.38939556 38.86320715 -13.72582557 37.8225233 -15 34 C-15.26295488 29.37916564 -15.23147146 24.75250217 -15.25 20.125 C-15.270625 18.84496094 -15.29125 17.56492187 -15.3125 16.24609375 C-15.32023438 14.39564453 -15.32023438 14.39564453 -15.328125 12.5078125 C-15.3374707 11.38004395 -15.34681641 10.25227539 -15.35644531 9.09033203 C-14.95735635 5.6302854 -14.06505885 3.77768464 -12 1 C-7.88898985 -1.51228398 -4.58568083 -1.16726421 0 0 Z " fill="#FEFEFE" transform="translate(667,1)"/>
<path d="M0 0 C3.14545189 2.75227041 3.93475209 4.13546515 4.25 8.3125 C4.1675 9.199375 4.085 10.08625 4 11 C1.69 11 -0.62 11 -3 11 C-3.33 9.68 -3.66 8.36 -4 7 C-4.99 7 -5.98 7 -7 7 C-7 10.94405236 -6.81186222 13.03825552 -4.22265625 16.10546875 C-2.81096815 17.46610122 -1.3739577 18.80106492 0.08984375 20.10546875 C2.6433528 22.6380902 3.83673845 24.63628584 4.265625 28.21875 C4.26046875 28.9715625 4.2553125 29.724375 4.25 30.5 C4.25515625 31.2528125 4.2603125 32.005625 4.265625 32.78125 C3.96850727 35.26305689 3.29144218 36.87074049 2 39 C-1.43702931 41.54594764 -4.85046112 41.36399464 -9 41 C-11.8125 40.125 -11.8125 40.125 -14 38 C-15.01836387 34.70622936 -15.57054909 31.41637814 -16 28 C-13.69 28 -11.38 28 -9 28 C-8.67 29.98 -8.34 31.96 -8 34 C-6.02 33.505 -6.02 33.505 -4 33 C-4 29.59753425 -4.52843614 27.54100293 -6.77734375 24.9609375 C-8.19286329 23.59405245 -9.62999077 22.24911905 -11.08984375 20.9296875 C-13.71888391 18.27376554 -14.85951327 16.28917237 -15.265625 12.5625 C-15.26046875 11.716875 -15.2553125 10.87125 -15.25 10 C-15.25515625 9.154375 -15.2603125 8.30875 -15.265625 7.4375 C-14.98071617 4.82304247 -14.39855272 3.21519015 -13 1 C-8.84116963 -1.56868935 -4.55492268 -1.46442191 0 0 Z " fill="#FDFDFD" transform="translate(710,1)"/>
<path d="M0 0 C2.4375 1.625 2.4375 1.625 4 4 C4.25 7.75 4.25 7.75 4 11 C2.02 11 0.04 11 -2 11 C-2.66 9.68 -3.32 8.36 -4 7 C-4.99 7.33 -5.98 7.66 -7 8 C-6.58259614 12.86971174 -4.45534852 14.72184884 -1 18 C-1 18.66 -1 19.32 -1 20 C-0.34 20 0.32 20 1 20 C3.6137018 23.55463445 4.73617948 26.60299141 5 31 C4.3239623 34.98862241 3.87200985 37.22764842 0.8125 39.9375 C-3.38048494 41.52151653 -7.03632132 41.63686876 -11.3125 40.25 C-13.49709737 38.63177973 -14.15712242 37.59887253 -15 35 C-15.0777346 32.66796188 -15.08967728 30.33160941 -15 28 C-12.69 28 -10.38 28 -8 28 C-7.67 29.65 -7.34 31.3 -7 33 C-5.68 33.33 -4.36 33.66 -3 34 C-3.95578183 27.30952717 -6.09625994 24.33347461 -11.125 19.859375 C-14.32406757 16.68696633 -14.95481136 14.56937685 -15.3125 10.0625 C-15.20024385 6.29490281 -14.50330233 3.93490618 -12 1 C-7.88898985 -1.51228398 -4.58568083 -1.16726421 0 0 Z " fill="#FDFDFD" transform="translate(568,1)"/>
<path d="M0 0 C5.94 0 11.88 0 18 0 C18 1.98 18 3.96 18 6 C14.37 6 10.74 6 7 6 C7 9.63 7 13.26 7 17 C9.97 17 12.94 17 16 17 C16 18.98 16 20.96 16 23 C13.03 23 10.06 23 7 23 C7 26.63 7 30.26 7 34 C10.63 34 14.26 34 18 34 C18 36.31 18 38.62 18 41 C12.06 41 6.12 41 0 41 C0 27.47 0 13.94 0 0 Z " fill="#FEFEFE" transform="translate(575,1)"/>
<path d="M0 0 C5.94 0 11.88 0 18 0 C18 1.98 18 3.96 18 6 C14.37 6 10.74 6 7 6 C7 9.63 7 13.26 7 17 C9.64 17 12.28 17 15 17 C15 18.98 15 20.96 15 23 C12.36 23 9.72 23 7 23 C7 26.63 7 30.26 7 34 C10.63 34 14.26 34 18 34 C18 36.31 18 38.62 18 41 C12.06 41 6.12 41 0 41 C0 27.47 0 13.94 0 0 Z " fill="#FEFEFE" transform="translate(675,1)"/>
<path d="M0 0 C0.33 0 0.66 0 1 0 C1.02689216 1.47906892 1.04634621 2.95827483 1.0625 4.4375 C1.07410156 5.26121094 1.08570313 6.08492188 1.09765625 6.93359375 C1 9 1 9 0 10 C-0.20931897 12.16296273 -0.36797069 14.3309471 -0.5 16.5 C-0.88888889 22.88888889 -0.88888889 22.88888889 -2 24 C-2.23287008 25.68183948 -2.41264166 27.3712416 -2.5625 29.0625 C-2.64628906 29.98160156 -2.73007812 30.90070312 -2.81640625 31.84765625 C-2.87699219 32.55792969 -2.93757813 33.26820312 -3 34 C-1.9171875 33.7215625 -1.9171875 33.7215625 -0.8125 33.4375 C2.12826973 32.98004693 4.14103058 33.26483643 7 34 C6.67 35.65 6.34 37.3 6 39 C9.465 38.505 9.465 38.505 13 38 C13.33 37.01 13.66 36.02 14 35 C14.66 35 15.32 35 16 35 C16.33 23.45 16.66 11.9 17 0 C17.33 0 17.66 0 18 0 C18 11.88 18 23.76 18 36 C23.94 35.505 23.94 35.505 30 35 C30 35.66 30 36.32 30 37 C26.37 37.33 22.74 37.66 19 38 C19 49.88 19 61.76 19 74 C23.62 74 28.24 74 33 74 C33 74.33 33 74.66 33 75 C32.00097656 75.12117188 31.00195312 75.24234375 29.97265625 75.3671875 C28.68230469 75.53476563 27.39195312 75.70234375 26.0625 75.875 C24.77472656 76.03742188 23.48695313 76.19984375 22.16015625 76.3671875 C20.59587891 76.68042969 20.59587891 76.68042969 19 77 C18.67 77.66 18.34 78.32 18 79 C13.38 79 8.76 79 4 79 C4.33 67.12 4.66 55.24 5 43 C4.34 43 3.68 43 3 43 C3 46.63 3 50.26 3 54 C2.34 54 1.68 54 1 54 C1.33 50.37 1.66 46.74 2 43 C-1.80157981 43.96275558 -1.80157981 43.96275558 -5 46 C-6.23010815 49.27852858 -6.68039396 52.52346897 -7 56 C-7.66 56 -8.32 56 -9 56 C-9 53.69 -9 51.38 -9 49 C-9.99 49 -10.98 49 -12 49 C-12 48.34 -12 47.68 -12 47 C-10.68 47.33 -9.36 47.66 -8 48 C-7.67 47.34 -7.34 46.68 -7 46 C-7.99 46 -8.98 46 -10 46 C-9.67 44.68 -9.34 43.36 -9 42 C-9 42.99 -9 43.98 -9 45 C-8.34 45 -7.68 45 -7 45 C-6.92483154 44.44352783 -6.84966309 43.88705566 -6.7722168 43.3137207 C-5.85617391 36.54137343 -4.93026098 29.7704079 -4 23 C-3.79189697 21.47995361 -3.79189697 21.47995361 -3.57958984 19.92919922 C-3.18198148 17.03557251 -2.77927454 14.14270201 -2.375 11.25 C-2.25213623 10.35192627 -2.12927246 9.45385254 -2.00268555 8.52856445 C-1.82733276 7.28465942 -1.82733276 7.28465942 -1.6484375 6.015625 C-1.54708496 5.28633789 -1.44573242 4.55705078 -1.34130859 3.80566406 C-1 2 -1 2 0 0 Z M6 41 C6 52.88 6 64.76 6 77 C12.03652664 77.13220146 12.03652664 77.13220146 17 75 C17.08858646 72.26105915 17.11523479 69.5474673 17.09765625 66.80859375 C17.09553383 65.57883568 17.09553383 65.57883568 17.09336853 64.32423401 C17.08775289 61.69528618 17.07519779 59.06642227 17.0625 56.4375 C17.05748701 54.65950643 17.05292376 52.88151154 17.04882812 51.10351562 C17.03777839 46.73564455 17.02050331 42.36783652 17 38 C13.19941525 38 9.60555128 39.79814957 6 41 Z " fill="#F0CC30" transform="translate(284,0)"/>
<path d="M0 0 C0.33 0 0.66 0 1 0 C1.67812422 4.14404234 2.34039758 8.2904726 3 12.4375 C3.19078125 13.60216797 3.3815625 14.76683594 3.578125 15.96679688 C4.59303613 22.40060851 5.22289303 28.48734442 5 35 C5.99 35 6.98 35 8 35 C7.67 35.99 7.34 36.98 7 38 C5.68 37.34 4.36 36.68 3 36 C3 36.99 3 37.98 3 39 C1.35 39.99 -0.3 40.98 -2 42 C-1.67 46.29 -1.34 50.58 -1 55 C-2.66905241 51.66189518 -3.8741386 48.53842155 -5 45 C-6.65 44.67 -8.3 44.34 -10 44 C-10 36.08 -10 28.16 -10 20 C-9.34 19.67 -8.68 19.34 -8 19 C-7.77390663 16.87635519 -7.77390663 16.87635519 -9.5 15.375 C-9.995 14.92125 -10.49 14.4675 -11 14 C-8.92446352 13.4465236 -7.15634036 13 -5 13 C-4.34 11.35 -3.68 9.7 -3 8 C-2.34 8 -1.68 8 -1 8 C-0.67 5.36 -0.34 2.72 0 0 Z M-8 21 C-8 28.59 -8 36.18 -8 44 C-6.68 43.34 -5.36 42.68 -4 42 C-4.28233361 39.24874911 -4.57547333 36.49938663 -4.875 33.75 C-4.95363281 32.97269531 -5.03226562 32.19539063 -5.11328125 31.39453125 C-5.19707031 30.64042969 -5.28085937 29.88632812 -5.3671875 29.109375 C-5.47716064 28.07248535 -5.47716064 28.07248535 -5.58935547 27.01464844 C-5.99561387 24.5761624 -5.99561387 24.5761624 -8 21 Z " fill="#F5CD1D" transform="translate(269,11)"/>
<path d="M0 0 C2.31 0 4.62 0 7 0 C7 13.53 7 27.06 7 41 C4.69 41 2.38 41 0 41 C0 27.47 0 13.94 0 0 Z " fill="#FEFEFE" transform="translate(642,1)"/>
<path d="M0 0 C2.31 0 4.62 0 7 0 C7 13.53 7 27.06 7 41 C4.69 41 2.38 41 0 41 C0 27.47 0 13.94 0 0 Z " fill="#FEFEFE" transform="translate(488,1)"/>
<path d="M0 0 C0.66 0 1.32 0 2 0 C2 25.41 2 50.82 2 77 C5.3 77 8.6 77 12 77 C12 51.59 12 26.18 12 0 C12.33 0 12.66 0 13 0 C13 26.07 13 52.14 13 79 C8.71 79 4.42 79 0 79 C0 52.93 0 26.86 0 0 Z " fill="#ECCA38" transform="translate(185,0)"/>
<path d="M0 0 C1.65 0 3.3 0 5 0 C5.66 2.31 6.32 4.62 7 7 C7.66 4.69 8.32 2.38 9 0 C10.65 0 12.3 0 14 0 C14 6.6 14 13.2 14 20 C9.38 20 4.76 20 0 20 C0 13.4 0 6.8 0 0 Z " fill="#FEFEFE" transform="translate(624,65)"/>
<path d="M0 0 C1.32 0 2.64 0 4 0 C4.33 1.65 4.66 3.3 5 5 C5.33 3.35 5.66 1.7 6 0 C7.32 0 8.64 0 10 0 C10.33 1.32 10.66 2.64 11 4 C11.33 2.68 11.66 1.36 12 0 C13.32 0 14.64 0 16 0 C15.34 6.6 14.68 13.2 14 20 C10.04 20 6.08 20 2 20 C1.66254646 17.60468244 1.3299171 15.20885732 1 12.8125 C0.90460938 12.13896484 0.80921875 11.46542969 0.7109375 10.77148438 C0.21675387 7.15335423 -0.11346131 3.65203599 0 0 Z " fill="#FDFDFD" transform="translate(423,65)"/>
<path d="M0 0 C0.99 0.33 1.98 0.66 3 1 C3 1.66 3 2.32 3 3 C3.66 3 4.32 3 5 3 C5.33 2.34 5.66 1.68 6 1 C6.99 1.66 7.98 2.32 9 3 C9.328125 5.09375 9.328125 5.09375 9.25 7.5 C9.23453125 8.2940625 9.2190625 9.088125 9.203125 9.90625 C9 12 9 12 8 14 C9.65 14.33 11.3 14.66 13 15 C13 15.99 13 16.98 13 18 C12.01 18.66 11.02 19.32 10 20 C10 20.66 10 21.32 10 22 C11.32 22.33 12.64 22.66 14 23 C14 24.32 14 25.64 14 27 C10.37 27 6.74 27 3 27 C1.81318274 23.43954823 1.90310168 20.56191663 1.9375 16.8125 C1.94652344 15.54019531 1.95554688 14.26789063 1.96484375 12.95703125 C1.97644531 11.98121094 1.98804688 11.00539063 2 10 C1.34 10 0.68 10 0 10 C0 6.7 0 3.4 0 0 Z " fill="#F9CD0A" transform="translate(143,51)"/>
<path d="M0 0 C6.93 0 13.86 0 21 0 C21 0.99 21 1.98 21 3 C19.68 3 18.36 3 17 3 C17 8.61 17 14.22 17 20 C15.68 20 14.36 20 13 20 C13 14.39 13 8.78 13 3 C11.02 3 9.04 3 7 3 C7 8.61 7 14.22 7 20 C5.68 20 4.36 20 3 20 C3 14.39 3 8.78 3 3 C2.01 3 1.02 3 0 3 C0 2.01 0 1.02 0 0 Z " fill="#FEFEFE" transform="translate(650,65)"/>
<path d="M0 0 C3.66666667 0 7.33333333 0 11 0 C11 6.6 11 13.2 11 20 C9.35 19.67 7.7 19.34 6 19 C5.67 17.68 5.34 16.36 5 15 C4.67 16.65 4.34 18.3 4 20 C2.68 20 1.36 20 0 20 C0 13.4 0 6.8 0 0 Z " fill="#FEFEFE" transform="translate(584,65)"/>
<path d="M0 0 C5.54441063 -0.60668323 8.59688733 1.27689702 12.875 4.5 C13.46796875 4.92925781 14.0609375 5.35851562 14.671875 5.80078125 C16.12380319 6.8546001 17.56322345 7.92561516 19 9 C15.21607774 10.96411219 12.00572791 12.37946204 7.6875 11.5625 C7.130625 11.376875 6.57375 11.19125 6 11 C6 10.34 6 9.68 6 9 C5.01 9 4.02 9 3 9 C3 10.32 3 11.64 3 13 C3.66 13 4.32 13 5 13 C5.33 15.64 5.66 18.28 6 21 C7.32 20.67 8.64 20.34 10 20 C10.08167446 21.41569064 10.13949698 22.83276805 10.1875 24.25 C10.22230469 25.03890625 10.25710938 25.8278125 10.29296875 26.640625 C9.93460826 29.52662145 8.78912224 30.7630813 7 33 C5.81868955 28.81649136 4.65759263 24.62762775 3.5 20.4375 C3.16613281 19.25607422 2.83226562 18.07464844 2.48828125 16.85742188 C0.91023478 11.10882401 -0.49127737 5.97428367 0 0 Z " fill="#F7CE13" transform="translate(308,1)"/>
<path d="M0 0 C2.97 0 5.94 0 9 0 C11.35093753 4.70187507 10.74431731 5.9551827 10 11 C10.18296374 14.02371654 10.55840735 17.00396372 11 20 C9.68 20 8.36 20 7 20 C6.34 17.69 5.68 15.38 5 13 C4.67 15.31 4.34 17.62 4 20 C2.68 20 1.36 20 0 20 C0 13.4 0 6.8 0 0 Z M4 3 C4 4.98 4 6.96 4 9 C4.66 9 5.32 9 6 9 C6 7.02 6 5.04 6 3 C5.34 3 4.68 3 4 3 Z " fill="#FEFEFE" transform="translate(682,65)"/>
<path d="M0 0 C2.97 0 5.94 0 9 0 C10 1 10 1 10.0625 2.96875 C10.041875 3.8040625 10.02125 4.639375 10 5.5 C9.94325998 10.42219679 10.37038248 15.1204642 11 20 C9.35 20 7.7 20 6 20 C6 17.69 6 15.38 6 13 C5.34 13 4.68 13 4 13 C4 15.31 4 17.62 4 20 C2.68 20 1.36 20 0 20 C0 13.4 0 6.8 0 0 Z M4 3 C4 4.98 4 6.96 4 9 C4.66 8.67 5.32 8.34 6 8 C5.67 6.35 5.34 4.7 5 3 C4.67 3 4.34 3 4 3 Z " fill="#FEFEFE" transform="translate(525,65)"/>
<path d="M0 0 C2.97 0 5.94 0 9 0 C10 1 10 1 10.0625 2.96875 C10.041875 3.8040625 10.02125 4.639375 10 5.5 C9.94325998 10.42219679 10.37038248 15.1204642 11 20 C9.35 19.67 7.7 19.34 6 19 C5.67 17.02 5.34 15.04 5 13 C4.67 15.31 4.34 17.62 4 20 C2.68 20 1.36 20 0 20 C0 13.4 0 6.8 0 0 Z M4 3 C4 4.98 4 6.96 4 9 C4.66 8.67 5.32 8.34 6 8 C6 6.35 6 4.7 6 3 C5.34 3 4.68 3 4 3 Z " fill="#FEFEFE" transform="translate(463,65)"/>
<path d="M0 0 C1.32 0 2.64 0 4 0 C4 2.64 4 5.28 4 8 C4.99 8 5.98 8 7 8 C7 5.36 7 2.72 7 0 C8.32 0 9.64 0 11 0 C11 6.6 11 13.2 11 20 C9.68 20 8.36 20 7 20 C7 17.36 7 14.72 7 12 C6.01 12 5.02 12 4 12 C4 14.64 4 17.28 4 20 C2.68 20 1.36 20 0 20 C0 13.4 0 6.8 0 0 Z " fill="#FEFEFE" transform="translate(440,65)"/>
<path d="M0 0 C2.64 0 5.28 0 8 0 C10 2 10 2 10.22705078 3.87939453 C10.21134033 4.99483643 10.21134033 4.99483643 10.1953125 6.1328125 C10.18564453 7.34130859 10.18564453 7.34130859 10.17578125 8.57421875 C10.15902344 9.41597656 10.14226563 10.25773437 10.125 11.125 C10.11597656 11.97449219 10.10695313 12.82398437 10.09765625 13.69921875 C10.07405647 15.79959884 10.03818483 17.89983444 10 20 C8.68 20 7.36 20 6 20 C6 17.69 6 15.38 6 13 C5.34 13 4.68 13 4 13 C4 15.31 4 17.62 4 20 C2.68 20 1.36 20 0 20 C0 13.4 0 6.8 0 0 Z M4 3 C4 4.98 4 6.96 4 9 C4.66 8.67 5.32 8.34 6 8 C5.67 6.35 5.34 4.7 5 3 C4.67 3 4.34 3 4 3 Z " fill="#FEFEFE" transform="translate(573,65)"/>
<path d="M0 0 C3.5625 -0.25 3.5625 -0.25 7 0 C9.1662868 2.1662868 8.23161742 6.93884217 8.25 9.9375 C8.270625 10.77474609 8.29125 11.61199219 8.3125 12.47460938 C8.31765625 13.27576172 8.3228125 14.07691406 8.328125 14.90234375 C8.34214355 16.00823853 8.34214355 16.00823853 8.35644531 17.13647461 C8.23881836 17.75143799 8.12119141 18.36640137 8 19 C5 21 5 21 1.875 20.75 C0.92625 20.5025 -0.0225 20.255 -1 20 C-2.50930882 16.98138236 -2.18438844 13.87008697 -2.1875 10.5625 C-2.19974609 9.88123047 -2.21199219 9.19996094 -2.22460938 8.49804688 C-2.23555848 4.77170191 -2.12005619 3.18008429 0 0 Z M3 3 C1.66098208 4.11126659 1.66098208 4.11126659 1.90234375 6.94140625 C1.91394531 8.13636719 1.92554688 9.33132812 1.9375 10.5625 C1.94652344 11.76003906 1.95554687 12.95757812 1.96484375 14.19140625 C1.97644531 15.11824219 1.98804688 16.04507813 2 17 C2.66 17 3.32 17 4 17 C4 12.38 4 7.76 4 3 C3.67 3 3.34 3 3 3 Z " fill="#FEFEFE" transform="translate(551,65)"/>
<path d="M0 0 C3.375 -0.125 3.375 -0.125 7 0 C9 2 9 2 9.23046875 5.625 C9.22647678 7.0833982 9.2117184 8.54179743 9.1875 10 C9.18685547 10.73734375 9.18621094 11.4746875 9.18554688 12.234375 C9.14050904 17.71898191 9.14050904 17.71898191 8 20 C5.125 20.75 5.125 20.75 2 21 C1.01 20.34 0.02 19.68 -1 19 C-1.24869641 16.08669922 -1.32634278 13.40579705 -1.25 10.5 C-1.24484375 9.71496094 -1.2396875 8.92992188 -1.234375 8.12109375 C-1.15462412 2.30924824 -1.15462412 2.30924824 0 0 Z M3 3 C3 7.62 3 12.24 3 17 C3.66 16.67 4.32 16.34 5 16 C5 12.04 5 8.08 5 4 C4.34 3.67 3.68 3.34 3 3 Z " fill="#FEFEFE" transform="translate(503,65)"/>
<path d="M0 0 C1.32 0 2.64 0 4 0 C4 5.61 4 11.22 4 17 C4.66 17 5.32 17 6 17 C6 11.39 6 5.78 6 0 C7.32 0 8.64 0 10 0 C10.02689449 2.95839355 10.04678741 5.91654427 10.0625 8.875 C10.07087891 9.71675781 10.07925781 10.55851562 10.08789062 11.42578125 C10.09111328 12.23144531 10.09433594 13.03710938 10.09765625 13.8671875 C10.10289307 14.61081543 10.10812988 15.35444336 10.11352539 16.12060547 C10 18 10 18 9 20 C6.125 20.8125 6.125 20.8125 3 21 C0.90635117 19.47205392 0.09975372 18.58372014 -0.34057617 16.00708008 C-0.32486572 15.26868896 -0.30915527 14.53029785 -0.29296875 13.76953125 C-0.28330078 12.96708984 -0.27363281 12.16464844 -0.26367188 11.33789062 C-0.23853516 10.50451172 -0.21339844 9.67113281 -0.1875 8.8125 C-0.17396484 7.96751953 -0.16042969 7.12253906 -0.14648438 6.25195312 C-0.11115799 4.16769616 -0.05735139 2.08376723 0 0 Z " fill="#FEFEFE" transform="translate(561,65)"/>
<path d="M0 0 C1.98 0 3.96 0 6 0 C6.99 6.6 7.98 13.2 9 20 C7.35 19.67 5.7 19.34 4 19 C4 18.34 4 17.68 4 17 C3.01 17 2.02 17 1 17 C1 17.99 1 18.98 1 20 C-0.32 20 -1.64 20 -3 20 C-2.69055299 17.41626766 -2.37756043 14.83304867 -2.0625 12.25 C-1.97548828 11.52039063 -1.88847656 10.79078125 -1.79882812 10.0390625 C-1.37972591 6.62415558 -0.882726 3.32396457 0 0 Z M2 8 C2 9.65 2 11.3 2 13 C2.33 13 2.66 13 3 13 C3 11.35 3 9.7 3 8 C2.67 8 2.34 8 2 8 Z " fill="#FEFEFE" transform="translate(642,65)"/>
<path d="M0 0 C0.33 0 0.66 0 1 0 C1 11.88 1 23.76 1 36 C6.94 35.505 6.94 35.505 13 35 C13 35.66 13 36.32 13 37 C7.555 37.495 7.555 37.495 2 38 C2 49.88 2 61.76 2 74 C6.62 74 11.24 74 16 74 C16 74.33 16 74.66 16 75 C15.00097656 75.12117188 14.00195312 75.24234375 12.97265625 75.3671875 C11.68230469 75.53476563 10.39195312 75.70234375 9.0625 75.875 C7.77472656 76.03742188 6.48695313 76.19984375 5.16015625 76.3671875 C3.59587891 76.68042969 3.59587891 76.68042969 2 77 C1.505 77.99 1.505 77.99 1 79 C-2.96 79 -6.92 79 -11 79 C-10.505 78.01 -10.505 78.01 -10 77 C-5.545 76.01 -5.545 76.01 -1 75 C-0.67 62.79 -0.34 50.58 0 38 C-2.97 38.495 -2.97 38.495 -6 39 C-5.01 38.505 -5.01 38.505 -4 38 C-3.67 37.01 -3.34 36.02 -3 35 C-2.34 35 -1.68 35 -1 35 C-0.67 23.45 -0.34 11.9 0 0 Z " fill="#EACE48" transform="translate(301,0)"/>
<path d="M0 0 C1.32 0 2.64 0 4 0 C4.33 5.28 4.66 10.56 5 16 C5.33 16 5.66 16 6 16 C6.33 10.72 6.66 5.44 7 0 C7.99 0 8.98 0 10 0 C10.08687496 3.12482562 10.14034568 6.24934246 10.1875 9.375 C10.22520508 10.70917969 10.22520508 10.70917969 10.26367188 12.0703125 C10.27817383 13.34648438 10.27817383 13.34648438 10.29296875 14.6484375 C10.31653442 15.82672119 10.31653442 15.82672119 10.34057617 17.02880859 C10.22818604 17.67930176 10.1157959 18.32979492 10 19 C7 21 7 21 4.4375 20.8125 C2 20 2 20 0 17 C-0.22705078 15.09887695 -0.22705078 15.09887695 -0.1953125 12.98828125 C-0.18886719 12.23095703 -0.18242188 11.47363281 -0.17578125 10.69335938 C-0.15902344 9.90767578 -0.14226563 9.12199219 -0.125 8.3125 C-0.11597656 7.51521484 -0.10695313 6.71792969 -0.09765625 5.89648438 C-0.07411585 3.930861 -0.03824547 1.96539225 0 0 Z " fill="#FEFEFE" transform="translate(513,65)"/>
<path d="M0 0 C3.3 0 6.6 0 10 0 C10 0.99 10 1.98 10 3 C8.35 3 6.7 3 5 3 C5 4.65 5 6.3 5 8 C6.32 8 7.64 8 9 8 C9 9.32 9 10.64 9 12 C7.68 12 6.36 12 5 12 C5 13.65 5 15.3 5 17 C6.65 17 8.3 17 10 17 C10 17.99 10 18.98 10 20 C6.7 20 3.4 20 0 20 C0 13.4 0 6.8 0 0 Z " fill="#FEFEFE" transform="translate(452,65)"/>
<path d="M0 0 C0.99 0.103125 1.98 0.20625 3 0.3125 C5 3.3125 5 3.3125 5 6.3125 C3.68 6.3125 2.36 6.3125 1 6.3125 C0.67 5.6525 0.34 4.9925 0 4.3125 C0.4397191 7.28060389 1.07132212 8.39221295 3.125 10.6875 C5 13.3125 5 13.3125 4.9375 16.5 C4 19.3125 4 19.3125 1 21.3125 C-3.54054054 20.77195946 -3.54054054 20.77195946 -5 19.3125 C-5.04063832 17.64632885 -5.042721 15.97861905 -5 14.3125 C-3.68 14.3125 -2.36 14.3125 -1 14.3125 C-1.66 13.44625 -2.32 12.58 -3 11.6875 C-5.1370529 8.08122323 -5.55881444 6.41047257 -5 2.3125 C-3 0.3125 -3 0.3125 0 0 Z " fill="#FDFDFD" transform="translate(699,64.6875)"/>
<path d="M0 0 C0.33 0 0.66 0 1 0 C1.1306555 8.42313125 1.26106255 16.8462663 1.39115143 25.26940632 C1.45156309 29.1805013 1.5120607 33.09159492 1.57275391 37.00268555 C1.63131057 40.77629987 1.68964255 44.54991761 1.74781799 48.32353783 C1.77006509 49.76405143 1.79239349 51.20456378 1.81480408 52.64507484 C1.84615158 54.66092222 1.87718461 56.67677449 1.90820312 58.69262695 C1.92596802 59.84068314 1.94373291 60.98873932 1.96203613 62.17158508 C2.01422899 66.06009999 1.86434296 69.81635602 1.5 73.6875 C1.4071875 74.68136719 1.314375 75.67523438 1.21875 76.69921875 C1.1465625 77.45847656 1.074375 78.21773438 1 79 C3.64 78.67 6.28 78.34 9 78 C9.495 69.09 9.495 69.09 10 60 C10.33 60 10.66 60 11 60 C11.02895976 63.12498063 11.04678483 66.2499269 11.0625 69.375 C11.07087891 70.26445313 11.07925781 71.15390625 11.08789062 72.0703125 C11.09111328 72.92109375 11.09433594 73.771875 11.09765625 74.6484375 C11.10289307 75.43395996 11.10812988 76.21948242 11.11352539 77.02880859 C11 79 11 79 10 81 C8.741875 81.020625 7.48375 81.04125 6.1875 81.0625 C5.47980469 81.07410156 4.77210938 81.08570312 4.04296875 81.09765625 C2 81 2 81 -1 80 C-1 78.02 -1 76.04 -1 74 C-1.66 74 -2.32 74 -3 74 C-2.67657623 73.15279388 -2.35315247 72.30558777 -2.01992798 71.43270874 C-0.94309691 67.80848479 -0.72323668 64.85022204 -0.68115234 61.07666016 C-0.67110672 60.4125412 -0.6610611 59.74842224 -0.65071106 59.06417847 C-0.62004738 56.88914788 -0.60289145 54.71423941 -0.5859375 52.5390625 C-0.56721225 51.02305055 -0.54763784 49.50704888 -0.5272522 47.99105835 C-0.47606809 44.01603266 -0.43636931 40.04097323 -0.39910889 36.0657959 C-0.35898285 32.0034154 -0.30792987 27.94117359 -0.2578125 23.87890625 C-0.16121584 15.91936581 -0.07675947 7.95975635 0 0 Z " fill="#ECCD3B" transform="translate(250,0)"/>
<path d="M0 0 C2.97 0 5.94 0 9 0 C9 0.99 9 1.98 9 3 C7.35 3 5.7 3 4 3 C4 4.65 4 6.3 4 8 C5.32 8 6.64 8 8 8 C8 9.32 8 10.64 8 12 C6.68 12 5.36 12 4 12 C4 13.65 4 15.3 4 17 C5.65 17 7.3 17 9 17 C9 17.99 9 18.98 9 20 C6.03 20 3.06 20 0 20 C0 13.4 0 6.8 0 0 Z " fill="#FEFEFE" transform="translate(672,65)"/>
<path d="M0 0 C2.97 0 5.94 0 9 0 C9 0.99 9 1.98 9 3 C7.35 3 5.7 3 4 3 C4 4.65 4 6.3 4 8 C5.32 8 6.64 8 8 8 C8 9.32 8 10.64 8 12 C6.68 12 5.36 12 4 12 C4 13.65 4 15.3 4 17 C5.65 17 7.3 17 9 17 C9 17.99 9 18.98 9 20 C6.03 20 3.06 20 0 20 C0 13.4 0 6.8 0 0 Z " fill="#FEFEFE" transform="translate(597,65)"/>
<path d="M0 0 C2.97 0 5.94 0 9 0 C9 0.99 9 1.98 9 3 C7.35 3 5.7 3 4 3 C4 4.65 4 6.3 4 8 C5.32 8 6.64 8 8 8 C8 9.32 8 10.64 8 12 C6.68 12 5.36 12 4 12 C4 13.65 4 15.3 4 17 C5.65 17 7.3 17 9 17 C9 17.99 9 18.98 9 20 C6.03 20 3.06 20 0 20 C0 13.4 0 6.8 0 0 Z " fill="#FEFEFE" transform="translate(475,65)"/>
<path d="M0 0 C1.32 0 2.64 0 4 0 C4.66 1.32 5.32 2.64 6 4 C6.33 2.68 6.66 1.36 7 0 C8.32 0 9.64 0 11 0 C10.06830908 6.67711828 9.03189962 13.33773545 8 20 C6.68 20 5.36 20 4 20 C3.32923511 17.23010036 2.66323683 14.45920258 2 11.6875 C1.80921875 10.90181641 1.6184375 10.11613281 1.421875 9.30664062 C1.24140625 8.54931641 1.0609375 7.79199219 0.875 7.01171875 C0.70742188 6.31522217 0.53984375 5.61872559 0.3671875 4.90112305 C0 3 0 3 0 0 Z " fill="#FDFDFD" transform="translate(607,65)"/>
<path d="M0 0 C1.32 0 2.64 0 4 0 C4.66 1.32 5.32 2.64 6 4 C6.33 2.68 6.66 1.36 7 0 C8.32 0 9.64 0 11 0 C10.06830908 6.67711828 9.03189962 13.33773545 8 20 C6.68 20 5.36 20 4 20 C3.32923511 17.23010036 2.66323683 14.45920258 2 11.6875 C1.80921875 10.90181641 1.6184375 10.11613281 1.421875 9.30664062 C1.24140625 8.54931641 1.0609375 7.79199219 0.875 7.01171875 C0.70742188 6.31522217 0.53984375 5.61872559 0.3671875 4.90112305 C0 3 0 3 0 0 Z " fill="#FDFDFD" transform="translate(490,65)"/>
<path d="M0 0 C5.28 0 10.56 0 16 0 C16 2.64 16 5.28 16 8 C13.89695523 8.1080023 11.79233091 8.18558987 9.6875 8.25 C7.92986328 8.31960937 7.92986328 8.31960937 6.13671875 8.390625 C3 8 3 8 1.08203125 6.234375 C0 4 0 4 0 0 Z M-1 5 C1 6 1 6 1 6 Z " fill="#FACD0B" transform="translate(99,35)"/>
<path d="M0 0 C0.33 0 0.66 0 1 0 C1 4.62 1 9.24 1 14 C4.5527864 16.1490712 4.5527864 16.1490712 7 16 C5.56835889 19.65938172 4.01065704 23.23988068 2.375 26.8125 C1.92898437 27.78832031 1.48296875 28.76414062 1.0234375 29.76953125 C0.68570313 30.50558594 0.34796875 31.24164063 0 32 C-0.66 32 -1.32 32 -2 32 C-2.2071352 21.10238692 -2.15729044 10.72866761 0 0 Z " fill="#F2CD26" transform="translate(238,96)"/>
<path d="M0 0 C1.32 0 2.64 0 4 0 C4.05392397 2.77109307 4.09363455 5.54113818 4.125 8.3125 C4.14175781 9.09818359 4.15851562 9.88386719 4.17578125 10.69335938 C4.18222656 11.45068359 4.18867187 12.20800781 4.1953125 12.98828125 C4.20578613 13.68477783 4.21625977 14.38127441 4.22705078 15.09887695 C4 17 4 17 2 20 C-0.625 20.1875 -0.625 20.1875 -3 20 C-3 19.01 -3 18.02 -3 17 C-2.34 16.67 -1.68 16.34 -1 16 C-0.68758545 13.28553021 -0.48663408 10.66090639 -0.375 7.9375 C-0.33632813 7.17888672 -0.29765625 6.42027344 -0.2578125 5.63867188 C-0.16326438 3.75952805 -0.08053244 1.87979664 0 0 Z " fill="#FEFEFE" transform="translate(544,65)"/>
<path d="M0 0 C0.33 0 0.66 0 1 0 C1.04241723 2.33294775 1.04092937 4.66702567 1 7 C0.67 7.33 0.34 7.66 0 8 C-0.20931897 10.16296273 -0.36797069 12.3309471 -0.5 14.5 C-0.88888889 20.88888889 -0.88888889 20.88888889 -2 22 C-2.20931897 24.16296273 -2.36797069 26.3309471 -2.5 28.5 C-2.88888889 34.88888889 -2.88888889 34.88888889 -4 36 C-4.23427778 38.01594582 -4.41336124 40.038474 -4.5625 42.0625 C-4.64628906 43.16722656 -4.73007813 44.27195313 -4.81640625 45.41015625 C-4.87699219 46.26480469 -4.93757812 47.11945312 -5 48 C-5.66 48 -6.32 48 -7 48 C-6.47694508 38.19174439 -5.35145023 28.59685594 -3.84326172 18.8996582 C-3.49352434 16.64576747 -3.15447744 14.39043287 -2.81640625 12.13476562 C-1.13692961 1.13692961 -1.13692961 1.13692961 0 0 Z " fill="#ECCD36" transform="translate(160,0)"/>
<path d="M0 0 C3.63 0 7.26 0 11 0 C12.87354157 3.74708314 12.22800786 8.25147353 12.25 12.375 C12.270625 13.3340625 12.29125 14.293125 12.3125 15.28125 C12.31765625 16.20679687 12.3228125 17.13234375 12.328125 18.0859375 C12.34214355 19.3551001 12.34214355 19.3551001 12.35644531 20.64990234 C11.91986302 23.52835518 10.97529857 24.89051561 9 27 C6.73828125 27.609375 6.73828125 27.609375 4.3125 27.75 C3.50425781 27.80671875 2.69601563 27.8634375 1.86328125 27.921875 C0.94095703 27.96054687 0.94095703 27.96054687 0 28 C0 27.67 0 27.34 0 27 C2.97 26.01 5.94 25.02 9 24 C9.02683201 20.52078265 9.0467567 17.04176961 9.0625 13.5625 C9.07087891 12.56927734 9.07925781 11.57605469 9.08789062 10.55273438 C9.09111328 9.60849609 9.09433594 8.66425781 9.09765625 7.69140625 C9.10289307 6.81685791 9.10812988 5.94230957 9.11352539 5.04125977 C9.22784809 3.00559794 9.22784809 3.00559794 8 2 C6.65252916 1.76924918 5.29622435 1.58846937 3.9375 1.4375 C2.638125 1.293125 1.33875 1.14875 0 1 C0 0.67 0 0.34 0 0 Z " fill="#EDCC33" transform="translate(13,11)"/>
<path d="M0 0 C0.66 0 1.32 0 2 0 C2.33 3.96 2.66 7.92 3 12 C6.63 12 10.26 12 14 12 C14.33 10.68 14.66 9.36 15 8 C15 9.32 15 10.64 15 12 C16.98 12 18.96 12 21 12 C18.49751135 13.66832577 16.58850813 14.62381674 13.8125 15.625 C12.73935547 16.01558594 12.73935547 16.01558594 11.64453125 16.4140625 C11.10183594 16.60742188 10.55914062 16.80078125 10 17 C10 16.01 10 15.02 10 14 C7.36 14 4.72 14 2 14 C1.67 12.02 1.34 10.04 1 8 C0.67 8 0.34 8 0 8 C0 5.36 0 2.72 0 0 Z " fill="#EDCC37" transform="translate(267,67)"/>
<path d="M0 0 C0.33 0 0.66 0 1 0 C1 11.88 1 23.76 1 36 C6.94 35.505 6.94 35.505 13 35 C13 35.66 13 36.32 13 37 C3.595 37.99 3.595 37.99 -6 39 C-5.01 38.505 -5.01 38.505 -4 38 C-3.67 37.01 -3.34 36.02 -3 35 C-2.34 35 -1.68 35 -1 35 C-0.67 23.45 -0.34 11.9 0 0 Z " fill="#EECF35" transform="translate(301,0)"/>
<path d="M0 0 C4.42117715 1.35091524 6.443343 3.1650145 9 7 C9.93053573 9.89968641 10.11816137 12.5121168 10.09765625 15.546875 C10.09443359 16.39121094 10.09121094 17.23554688 10.08789062 18.10546875 C10.07951172 18.97816406 10.07113281 19.85085937 10.0625 20.75 C10.05798828 21.63816406 10.05347656 22.52632812 10.04882812 23.44140625 C10.037074 25.62767329 10.02064249 27.81380179 10 30 C9.67 30 9.34 30 9 30 C8.93941406 28.86820313 8.87882812 27.73640625 8.81640625 26.5703125 C8.73200083 25.08852855 8.64735283 23.6067584 8.5625 22.125 C8.52318359 21.37863281 8.48386719 20.63226562 8.44335938 19.86328125 C8.28426376 15.80013136 8.28426376 15.80013136 7 12 C6.01 11.34 5.02 10.68 4 10 C2 4.94736842 2 4.94736842 2 2 C1.34 2 0.68 2 0 2 C0 1.34 0 0.68 0 0 Z " fill="#F0CF29" transform="translate(68,1)"/>
<path d="M0 0 C11.70615034 7.11389522 11.70615034 7.11389522 16 12 C5.32335157 11.58537288 5.32335157 11.58537288 1 7 C-0.8125 4.75 -0.8125 4.75 -2 3 C-1.34 3 -0.68 3 0 3 C0 2.01 0 1.02 0 0 Z " fill="#F3CD21" transform="translate(329,12)"/>
<path d="M0 0 C0.66 0 1.32 0 2 0 C2 1.98 2 3.96 2 6 C2.66 6 3.32 6 4 6 C4.33 8.64 4.66 11.28 5 14 C6.32 13.67 7.64 13.34 9 13 C9.08167446 14.41569064 9.13949698 15.83276805 9.1875 17.25 C9.22230469 18.03890625 9.25710938 18.8278125 9.29296875 19.640625 C8.93460826 22.52662145 7.78912224 23.7630813 6 26 C4.9916593 22.41896026 3.99478914 18.83482575 3 15.25 C2.71382813 14.23421875 2.42765625 13.2184375 2.1328125 12.171875 C1.86210937 11.1921875 1.59140625 10.2125 1.3125 9.203125 C1.06113281 8.30239258 0.80976563 7.40166016 0.55078125 6.47363281 C0 4 0 4 0 0 Z " fill="#F2CD29" transform="translate(309,8)"/>
<path d="M0 0 C0.66 0 1.32 0 2 0 C2 0.66 2 1.32 2 2 C2.66 2 3.32 2 4 2 C4 2.99 4 3.98 4 5 C4.66 5.33 5.32 5.66 6 6 C2.37 8.31 -1.26 10.62 -5 13 C-4.67 10.03 -4.34 7.06 -4 4 C-2.68 4 -1.36 4 0 4 C0 2.68 0 1.36 0 0 Z " fill="#F8CE15" transform="translate(342,82)"/>
<path d="M0 0 C0.33 0.99 0.66 1.98 1 3 C-1.32548952 7.29321143 -3.51893602 9.98352121 -8 12 C-9.32 12 -10.64 12 -12 12 C-11.75 9.625 -11.75 9.625 -11 7 C-8.84898936 5.54286376 -7.59713506 5 -5 5 C-4.67 4.34 -4.34 3.68 -4 3 C-3.01 2.67 -2.02 2.34 -1 2 C-0.67 1.34 -0.34 0.68 0 0 Z " fill="#F3CC25" transform="translate(34,37)"/>
<path d="M0 0 C0.33 0 0.66 0 1 0 C1.33 2.64 1.66 5.28 2 8 C4.33317216 8.77772405 6.61435923 9.42415568 9 10 C5.20307814 12.82561627 2.81430721 14.56638908 -2 14 C-2.21192221 8.80790596 -1.5912689 4.873261 0 0 Z " fill="#F0CF27" transform="translate(310,98)"/>
<path d="M0 0 C5.77281088 1.99828069 8.03084172 3.6555151 11 9 C10.67 9.66 10.34 10.32 10 11 C9.34 10.67 8.68 10.34 8 10 C8 9.34 8 8.68 8 8 C7.01 8 6.02 8 5 8 C4.67 6.68 4.34 5.36 4 4 C3.67 4.66 3.34 5.32 3 6 C2.01 6 1.02 6 0 6 C0 7.65 0 9.3 0 11 C-0.99 10.34 -1.98 9.68 -3 9 C-1.25 4.125 -1.25 4.125 1 3 C0.67 2.01 0.34 1.02 0 0 Z " fill="#F6CF18" transform="translate(24,0)"/>
<path d="M0 0 C0.99 0.33 1.98 0.66 3 1 C3.8125 3.1875 3.8125 3.1875 4 6 C0.33745226 10.76131206 -4.89027969 13.92783345 -10 17 C-10.33 17 -10.66 17 -11 17 C-11 15.35 -11 13.7 -11 12 C-10.01 12 -9.02 12 -8 12 C-7.67 11.34 -7.34 10.68 -7 10 C-4.9375 8.875 -4.9375 8.875 -3 8 C-3 7.67 -3 7.34 -3 7 C-1.35 7 0.3 7 2 7 C1.34 4.69 0.68 2.38 0 0 Z " fill="#F1CF28" transform="translate(385,52)"/>
<path d="M0 0 C0.66 0 1.32 0 2 0 C2 6.6 2 13.2 2 20 C1.01 20 0.02 20 -1 20 C-1.33 17.03 -1.66 14.06 -2 11 C-1.34 11 -0.68 11 0 11 C0 7.37 0 3.74 0 0 Z " fill="#F9CE07" transform="translate(287,43)"/>
<path d="M0 0 C0.7734375 0.495 0.7734375 0.495 1.5625 1 C4.78026512 2.32010877 7.5570528 2.13242105 11 2 C10.67 3.32 10.34 4.64 10 6 C11.72945653 5.85764543 13.45855654 5.71095618 15.1875 5.5625 C16.15042969 5.48128906 17.11335938 5.40007812 18.10546875 5.31640625 C20.78649602 5.02333849 23.3662986 4.57296246 26 4 C25.67 4.66 25.34 5.32 25 6 C18.81520243 8.06159919 11.5014023 7.86255252 5.375 5.75 C3.03337473 4.02459191 1.52939478 2.46402493 0 0 Z " fill="#EECD2F" transform="translate(209,73)"/>
<path d="M0 0 C-0.25 2.375 -0.25 2.375 -1 5 C-3.56310828 6.7941758 -4.83119306 7 -8 7 C-8 5.02 -8 3.04 -8 1 C-5.29120665 -0.35439668 -2.99066732 -0.06501451 0 0 Z " fill="#F8CE08" transform="translate(287,36)"/>
<path d="M0 0 C0.66 0 1.32 0 2 0 C2 0.99 2 1.98 2 3 C1.34 3 0.68 3 0 3 C-0.33 4.32 -0.66 5.64 -1 7 C-2.32 6.67 -3.64 6.34 -5 6 C-5.33 6.99 -5.66 7.98 -6 9 C-6.185625 7.824375 -6.185625 7.824375 -6.375 6.625 C-6.79117993 3.85942178 -6.79117993 3.85942178 -9 2 C-6.94921875 1.77213542 -4.8984375 1.54427083 -2.84765625 1.31640625 C-0.98859771 1.18113386 -0.98859771 1.18113386 0 0 Z " fill="#FACC06" transform="translate(62,35)"/>
<path d="M0 0 C1.7541123 1.07666203 3.50312587 2.16163339 5.25 3.25 C6.71179688 4.15492187 6.71179688 4.15492187 8.203125 5.078125 C10.79705245 6.86054442 12.86377619 8.70101628 15 11 C14.319375 10.71125 13.63875 10.4225 12.9375 10.125 C9.67106907 8.87402645 6.37153877 7.92552045 3 7 C3.33 6.01 3.66 5.02 4 4 C2.68 4.33 1.36 4.66 0 5 C-0.33 4.34 -0.66 3.68 -1 3 C-0.67 2.01 -0.34 1.02 0 0 Z " fill="#F1CE25" transform="translate(353,29)"/>
<path d="M0 0 C2.75 -0.25 2.75 -0.25 6 0 C8.375 2 8.375 2 10 4 C9.04287109 4.07347656 9.04287109 4.07347656 8.06640625 4.1484375 C7.24011719 4.22320313 6.41382813 4.29796875 5.5625 4.375 C4.73878906 4.44460937 3.91507812 4.51421875 3.06640625 4.5859375 C2.04353516 4.79089844 2.04353516 4.79089844 1 5 C0.67 5.66 0.34 6.32 0 7 C0 4.69 0 2.38 0 0 Z " fill="#EFCD2D" transform="translate(308,1)"/>
<path d="M0 0 C0.33 0.99 0.66 1.98 1 3 C1.66 3 2.32 3 3 3 C3.33 2.01 3.66 1.02 4 0 C4 0.66 4 1.32 4 2 C4.99 2.33 5.98 2.66 7 3 C6.01 3.495 6.01 3.495 5 4 C4.31068656 6.34907875 4.31068656 6.34907875 3.875 9.0625 C3.70742188 9.98160156 3.53984375 10.90070312 3.3671875 11.84765625 C3.24601562 12.55792969 3.12484375 13.26820312 3 14 C2.34 14 1.68 14 1 14 C1 11.69 1 9.38 1 7 C0.01 7 -0.98 7 -2 7 C-2 6.34 -2 5.68 -2 5 C-0.68 5.33 0.64 5.66 2 6 C2.33 5.34 2.66 4.68 3 4 C2.01 4 1.02 4 0 4 C0 2.68 0 1.36 0 0 Z " fill="#E9D05B" transform="translate(274,42)"/>
<path d="M0 0 C-0.99 0.495 -0.99 0.495 -2 1 C-1.01 2.485 -1.01 2.485 0 4 C0.14245897 6.76655324 0.18769445 9.42653306 0.125 12.1875 C0.11597656 12.93708984 0.10695313 13.68667969 0.09765625 14.45898438 C0.07412578 16.30612654 0.03825561 18.15310412 0 20 C-0.33 20 -0.66 20 -1 20 C-1.06058594 18.95199219 -1.12117188 17.90398438 -1.18359375 16.82421875 C-1.26801738 15.44529952 -1.35266447 14.06639395 -1.4375 12.6875 C-1.49647461 11.65206055 -1.49647461 11.65206055 -1.55664062 10.59570312 C-1.74927415 7.52838465 -2.02322717 4.93031848 -3 2 C-6.3 1.67 -9.6 1.34 -13 1 C-13 0.67 -13 0.34 -13 0 C-11.39679026 -0.19551338 -9.79237014 -0.38111983 -8.1875 -0.5625 C-7.29417969 -0.66691406 -6.40085937 -0.77132813 -5.48046875 -0.87890625 C-3 -1 -3 -1 0 0 Z " fill="#EFCD26" transform="translate(67,11)"/>
<path d="M0 0 C0.33 0 0.66 0 1 0 C1.33 4.95 1.66 9.9 2 15 C1.01 15.33 0.02 15.66 -1 16 C-1 17.65 -1 19.3 -1 21 C-1.33 21 -1.66 21 -2 21 C-1.03644647 6.21867882 -1.03644647 6.21867882 0 0 Z " fill="#EFCD31" transform="translate(284,54)"/>
<path d="M0 0 C2.16874252 0.50603992 3.99967627 0.99983813 6 2 C6 3.65 6 5.3 6 7 C4.33388095 7.042721 2.66617115 7.04063832 1 7 C0 6 0 6 -0.0625 2.9375 C-0.041875 1.968125 -0.02125 0.99875 0 0 Z " fill="#F9CD07" transform="translate(155,36)"/>
<path d="M0 0 C0.33 0 0.66 0 1 0 C1.12375 1.11375 1.2475 2.2275 1.375 3.375 C1.6465813 7.03103677 1.6465813 7.03103677 4 9 C3.01 9.99 2.02 10.98 1 12 C0.67 11.67 0.34 11.34 0 11 C-0.33 11.99 -0.66 12.98 -1 14 C-1.66 14 -2.32 14 -3 14 C-2.69024532 12.22868439 -2.37709575 10.45796222 -2.0625 8.6875 C-1.88847656 7.70136719 -1.71445312 6.71523437 -1.53515625 5.69921875 C-1 3 -1 3 0 0 Z " fill="#F2CD26" transform="translate(316,76)"/>
<path d="M0 0 C0.33 0 0.66 0 1 0 C1.33 4.29 1.66 8.58 2 13 C1.34 13 0.68 13 0 13 C0 12.34 0 11.68 0 11 C-0.99 11 -1.98 11 -3 11 C-3 10.01 -3 9.02 -3 8 C-2.34 8 -1.68 8 -1 8 C-0.67 5.36 -0.34 2.72 0 0 Z " fill="#F2D029" transform="translate(269,11)"/>
<path d="M0 0 C5.08938811 1.59043379 8.87456643 4.7446951 13 8 C12.01 8.495 12.01 8.495 11 9 C8 8 8 8 6.6875 6.5625 C4.38984098 4.43503794 1.97249204 3.85871992 -1 3 C-0.67 2.01 -0.34 1.02 0 0 Z " fill="#EDCE30" transform="translate(372,43)"/>
<path d="M0 0 C0.99 0.33 1.98 0.66 3 1 C1.625 3 1.625 3 0 5 C-0.66 5 -1.32 5 -2 5 C-2.33 6.32 -2.66 7.64 -3 9 C-3.66 9 -4.32 9 -5 9 C-4.67 6.36 -4.34 3.72 -4 1 C-2.68 1.66 -1.36 2.32 0 3 C0 2.01 0 1.02 0 0 Z " fill="#F5CD23" transform="translate(316,89)"/>
<path d="M0 0 C0.33 0 0.66 0 1 0 C1.44041451 5.37305699 1.44041451 5.37305699 1 8 C-1.5 10 -1.5 10 -4 11 C-3.52269162 9.5410574 -3.04308958 8.08286504 -2.5625 6.625 C-2.29566406 5.81289062 -2.02882812 5.00078125 -1.75390625 4.1640625 C-1 2 -1 2 0 0 Z " fill="#F0CE21" transform="translate(246,74)"/>
<path d="M0 0 C3 1 3 1 4.75 3.4375 C5.36875 4.7059375 5.36875 4.7059375 6 6 C5.67 6.66 5.34 7.32 5 8 C4.34 7.67 3.68 7.34 3 7 C3 6.34 3 5.68 3 5 C2.01 5 1.02 5 0 5 C-0.33 4.01 -0.66 3.02 -1 2 C-0.67 1.34 -0.34 0.68 0 0 Z " fill="#EECF23" transform="translate(29,3)"/>
<path d="M0 0 C0.99 0.33 1.98 0.66 3 1 C0.03 4.96 0.03 4.96 -3 9 C-4 5 -4 5 -3 3 C-2.01 3 -1.02 3 0 3 C0 2.01 0 1.02 0 0 Z " fill="#F1CD30" transform="translate(249,103)"/>
<path d="M0 0 C0.99 0.66 1.98 1.32 3 2 C4.65549531 2.38499891 6.3222433 2.72793135 8 3 C8 3.33 8 3.66 8 4 C4.37 4 0.74 4 -3 4 C-2.67 3.01 -2.34 2.02 -2 1 C-1.34 1.33 -0.68 1.66 0 2 C0 1.34 0 0.68 0 0 Z " fill="#F7CD1B" transform="translate(149,74)"/>
<path d="M0 0 C1.98 0.66 3.96 1.32 6 2 C1.25 5.875 1.25 5.875 -1 7 C-1.04254356 5.00045254 -1.04080783 2.99958364 -1 1 C-0.67 0.67 -0.34 0.34 0 0 Z " fill="#F4D126" transform="translate(338,88)"/>
<path d="M0 0 C0.99 0 1.98 0 3 0 C3 0.66 3 1.32 3 2 C3.66 2 4.32 2 5 2 C5 2.99 5 3.98 5 5 C3.02 5 1.04 5 -1 5 C-0.67 3.35 -0.34 1.7 0 0 Z " fill="#F1CC24" transform="translate(55,42)"/>
<path d="M0 0 C2.31 0.33 4.62 0.66 7 1 C5.71034824 2.37562854 4.37310707 3.70766393 3 5 C2.34 5 1.68 5 1 5 C0.67 3.35 0.34 1.7 0 0 Z " fill="#F8D439" transform="translate(327,96)"/>
<path d="M0 0 C1.32 0.66 2.64 1.32 4 2 C2.35 3.65 0.7 5.3 -1 7 C-1.04254356 5.00045254 -1.04080783 2.99958364 -1 1 C-0.67 0.67 -0.34 0.34 0 0 Z " fill="#F1CE27" transform="translate(254,59)"/>
<path d="M0 0 C0 0.99 0 1.98 0 3 C-0.66 3 -1.32 3 -2 3 C-2 2.34 -2 1.68 -2 1 C-5.3 1 -8.6 1 -12 1 C-12 0.67 -12 0.34 -12 0 C-10.37585622 -0.19477739 -8.75063577 -0.38059458 -7.125 -0.5625 C-6.22007812 -0.66691406 -5.31515625 -0.77132812 -4.3828125 -0.87890625 C-2 -1 -2 -1 0 0 Z " fill="#F7CD1D" transform="translate(319,73)"/>
<path d="M0 0 C0.125 2.875 0.125 2.875 0 6 C-0.66 6.66 -1.32 7.32 -2 8 C-2.33 5.69 -2.66 3.38 -3 1 C-1 0 -1 0 0 0 Z " fill="#F6CC23" transform="translate(77,28)"/>
</svg>
